<svg xmlns="http://www.w3.org/2000/svg" version="1.1" xmlns:xlink="http://www.w3.org/1999/xlink" xmlns:svgjs="http://svgjs.com/svgjs" id="BgenPttrnSvgRootPreview" width="100%" height="100%"><defs><pattern x="0" y="0" width="1" height="1" patternUnits="userSpaceOnUse" id="BgenPttrnLayer1"><g id="PatternRootContent1"><g id="BgenPttrnLayer1background"><rect width="1" height="1" id="BgenPttrnBackground1" class="color_1 fill_color_1" fill="#b0b0b0"></rect></g></g></pattern><pattern x="0" y="0" width="22" height="36" patternUnits="userSpaceOnUse" id="BgenPttrnLayer2" patternTransform="matrix(1.2,0,0,1.2,0,0)"><g id="PatternRootContent2"><g id="BgenPttrnLayer2Element1"><use xlink:href="#BgenPttrnElement1" x="10" y="-21" transform="translate(20, -11) scale(1) translate(-20, 11) rotate(0, 22, -9)"></use><use xlink:href="#BgenPttrnElement1" x="-12" y="-21" transform="translate(-2, -11) scale(1) translate(2, 11) rotate(0, 0, -9)"></use><use xlink:href="#BgenPttrnElement1" x="-1" y="-3" transform="translate(9, 7) scale(1) translate(-9, -7) rotate(0, 11, 9)"></use><use xlink:href="#BgenPttrnElement1" x="-23" y="-3" transform="translate(-13, 7) scale(1) translate(13, -7) rotate(0, -11, 9)"></use><use xlink:href="#BgenPttrnElement1" x="10" y="15" transform="translate(20, 25) scale(1) translate(-20, -25) rotate(0, 22, 27)"></use><use xlink:href="#BgenPttrnElement1" x="-12" y="15" transform="translate(-2, 25) scale(1) translate(2, -25) rotate(0, 0, 27)"></use><use xlink:href="#BgenPttrnElement1" x="-1" y="33" transform="translate(9, 43) scale(1) translate(-9, -43) rotate(0, 11, 45)"></use><use xlink:href="#BgenPttrnElement1" x="-1" y="33" transform="translate(9, 43) scale(1) translate(-9, -43) rotate(0, 11, 45)"></use></g></g></pattern><symbol id="BgenPttrnElement1"><path d="M17,12L12,17V14H8V10H12V7L17,12M21,16.5C21,16.88 20.79,17.21 20.47,17.38L12.57,21.82C12.41,21.94 12.21,22 12,22C11.79,22 11.59,21.94 11.43,21.82L3.53,17.38C3.21,17.21 3,16.88 3,16.5V7.5C3,7.12 3.21,6.79 3.53,6.62L11.43,2.18C11.59,2.06 11.79,2 12,2C12.21,2 12.41,2.06 12.57,2.18L20.47,6.62C20.79,6.79 21,7.12 21,7.5V16.5M12,4.15L5,8.09V15.91L12,19.85L19,15.91V8.09L12,4.15Z" class="color_2 fill_color_2" fill="#ffdede"></path></symbol></defs><rect width="100%" height="100%" id="BgenPttrnRctLayer1" fill="url(#BgenPttrnLayer1)"></rect><rect width="100%" height="100%" id="BgenPttrnRctLayer2" fill="url(#BgenPttrnLayer2)"></rect></svg>